<mxfile host="Electron" modified="2024-03-07T12:22:54.771Z" agent="Mozilla/5.0 (Windows NT 10.0; Win64; x64) AppleWebKit/537.36 (KHTML, like Gecko) draw.io/23.1.5 Chrome/120.0.6099.109 Electron/28.1.0 Safari/537.36" etag="xYHaL4Mtl2scCVQjZDeK" version="23.1.5" type="device">
  <diagram id="mKZWbqL0XB0lJD7sHjVe" name="Page-1">
    <mxGraphModel dx="129" dy="1206" grid="1" gridSize="10" guides="1" tooltips="1" connect="1" arrows="1" fold="1" page="1" pageScale="1" pageWidth="1920" pageHeight="1200" math="0" shadow="0">
      <root>
        <mxCell id="0" />
        <mxCell id="1" parent="0" />
        <mxCell id="V0XUvgyLBSWxk2wAO0TV-1" value="" style="rounded=0;whiteSpace=wrap;html=1;fontSize=25;fillColor=#f5f5f5;fontColor=#333333;strokeColor=#666666;direction=east;strokeWidth=2;fontStyle=1" parent="1" vertex="1">
          <mxGeometry x="2150" y="100" width="2020" height="1320" as="geometry" />
        </mxCell>
        <mxCell id="V0XUvgyLBSWxk2wAO0TV-2" value="" style="rounded=0;whiteSpace=wrap;html=1;strokeWidth=2;fontStyle=1" parent="1" vertex="1">
          <mxGeometry x="2180" y="570" width="1960" height="290" as="geometry" />
        </mxCell>
        <mxCell id="V0XUvgyLBSWxk2wAO0TV-3" value="" style="rounded=0;whiteSpace=wrap;html=1;strokeWidth=2;fontStyle=1" parent="1" vertex="1">
          <mxGeometry x="2180" y="180" width="1960" height="330" as="geometry" />
        </mxCell>
        <mxCell id="V0XUvgyLBSWxk2wAO0TV-4" value="" style="rounded=0;whiteSpace=wrap;html=1;strokeWidth=2;fontStyle=1" parent="1" vertex="1">
          <mxGeometry x="2175" y="869" width="1960" height="530.5" as="geometry" />
        </mxCell>
        <mxCell id="V0XUvgyLBSWxk2wAO0TV-5" style="edgeStyle=orthogonalEdgeStyle;rounded=0;orthogonalLoop=1;jettySize=auto;html=1;exitX=0.5;exitY=1;exitDx=0;exitDy=0;strokeColor=#00CC00;strokeWidth=2;fontStyle=1" parent="1" source="V0XUvgyLBSWxk2wAO0TV-6" target="V0XUvgyLBSWxk2wAO0TV-7" edge="1">
          <mxGeometry relative="1" as="geometry" />
        </mxCell>
        <mxCell id="V0XUvgyLBSWxk2wAO0TV-6" value="INITIATE ONLINE APPLICATION&lt;br&gt;--------------------------&lt;br&gt;&lt;u&gt;OB.1.1.B&lt;/u&gt;" style="rounded=0;whiteSpace=wrap;html=1;strokeWidth=2;fontStyle=1" parent="1" vertex="1">
          <mxGeometry x="2300" y="330" width="120" height="60" as="geometry" />
        </mxCell>
        <mxCell id="V0XUvgyLBSWxk2wAO0TV-7" value="SELECTS &#39;APPLICATION BY PARENT OR GUARDIAN&#39;" style="rounded=0;whiteSpace=wrap;html=1;strokeWidth=2;fontStyle=1" parent="1" vertex="1">
          <mxGeometry x="2300" y="423" width="120" height="60" as="geometry" />
        </mxCell>
        <mxCell id="V0XUvgyLBSWxk2wAO0TV-8" style="edgeStyle=orthogonalEdgeStyle;rounded=0;orthogonalLoop=1;jettySize=auto;html=1;exitX=1;exitY=0.5;exitDx=0;exitDy=0;entryX=0;entryY=0.5;entryDx=0;entryDy=0;strokeColor=#00CC00;strokeWidth=2;fontStyle=1" parent="1" source="V0XUvgyLBSWxk2wAO0TV-7" target="V0XUvgyLBSWxk2wAO0TV-51" edge="1">
          <mxGeometry relative="1" as="geometry">
            <mxPoint x="2620" y="310" as="targetPoint" />
            <Array as="points">
              <mxPoint x="2430" y="453" />
              <mxPoint x="2430" y="286" />
              <mxPoint x="2455" y="286" />
            </Array>
            <mxPoint x="2570" y="450" as="sourcePoint" />
          </mxGeometry>
        </mxCell>
        <mxCell id="V0XUvgyLBSWxk2wAO0TV-9" style="edgeStyle=orthogonalEdgeStyle;rounded=0;orthogonalLoop=1;jettySize=auto;html=1;exitX=0.5;exitY=1;exitDx=0;exitDy=0;strokeColor=#00CC00;strokeWidth=2;fontStyle=1;entryX=0.5;entryY=0;entryDx=0;entryDy=0;" parent="1" source="V0XUvgyLBSWxk2wAO0TV-10" target="V0XUvgyLBSWxk2wAO0TV-134" edge="1">
          <mxGeometry relative="1" as="geometry">
            <Array as="points">
              <mxPoint x="2550" y="500" />
              <mxPoint x="2443" y="500" />
              <mxPoint x="2443" y="590" />
              <mxPoint x="2443" y="590" />
            </Array>
            <mxPoint x="2515" y="597.0000000000002" as="targetPoint" />
          </mxGeometry>
        </mxCell>
        <mxCell id="V0XUvgyLBSWxk2wAO0TV-10" value="REVIEWS APPLICATION AND CLICKS CONFIRM" style="rounded=0;whiteSpace=wrap;html=1;strokeWidth=2;fontStyle=1" parent="1" vertex="1">
          <mxGeometry x="2490" y="394" width="120" height="66" as="geometry" />
        </mxCell>
        <mxCell id="V0XUvgyLBSWxk2wAO0TV-11" value="" style="edgeStyle=orthogonalEdgeStyle;rounded=0;orthogonalLoop=1;jettySize=auto;html=1;exitX=0.5;exitY=1;exitDx=0;exitDy=0;strokeColor=#FF0000;strokeWidth=2;fontStyle=1;horizontal=1;fontSize=13;verticalAlign=middle;" parent="1" source="V0XUvgyLBSWxk2wAO0TV-13" target="V0XUvgyLBSWxk2wAO0TV-139" edge="1">
          <mxGeometry x="-0.2737" y="20" relative="1" as="geometry">
            <mxPoint x="2640" y="389.5" as="targetPoint" />
            <Array as="points" />
            <mxPoint as="offset" />
          </mxGeometry>
        </mxCell>
        <mxCell id="V0XUvgyLBSWxk2wAO0TV-12" value="RESET COUNTER" style="edgeStyle=orthogonalEdgeStyle;rounded=0;orthogonalLoop=1;jettySize=auto;html=1;exitX=1;exitY=0.5;exitDx=0;exitDy=0;entryX=0.5;entryY=1;entryDx=0;entryDy=0;strokeColor=#00CC00;strokeWidth=2;fontStyle=1;jumpStyle=arc;" parent="1" source="V0XUvgyLBSWxk2wAO0TV-13" target="V0XUvgyLBSWxk2wAO0TV-19" edge="1">
          <mxGeometry x="0.516" y="-9" relative="1" as="geometry">
            <mxPoint as="offset" />
          </mxGeometry>
        </mxCell>
        <mxCell id="V0XUvgyLBSWxk2wAO0TV-13" value="IF APPLICANT&lt;br style=&quot;border-color: var(--border-color);&quot;&gt;DETAILS IS UNIQUE" style="rounded=0;whiteSpace=wrap;html=1;strokeWidth=2;fontStyle=1;shape=rhombus;perimeter=rhombusPerimeter;fillColor=#fff2cc;strokeColor=#d6b656;" parent="1" vertex="1">
          <mxGeometry x="2575" y="930" width="140" height="110.5" as="geometry" />
        </mxCell>
        <mxCell id="V0XUvgyLBSWxk2wAO0TV-14" style="edgeStyle=orthogonalEdgeStyle;rounded=0;orthogonalLoop=1;jettySize=auto;html=1;exitX=0.5;exitY=1;exitDx=0;exitDy=0;entryX=0.5;entryY=0;entryDx=0;entryDy=0;strokeColor=#00CC00;strokeWidth=2;fontStyle=1" parent="1" source="V0XUvgyLBSWxk2wAO0TV-16" target="V0XUvgyLBSWxk2wAO0TV-87" edge="1">
          <mxGeometry relative="1" as="geometry" />
        </mxCell>
        <mxCell id="V0XUvgyLBSWxk2wAO0TV-15" style="edgeStyle=orthogonalEdgeStyle;rounded=0;orthogonalLoop=1;jettySize=auto;html=1;exitX=1;exitY=0.5;exitDx=0;exitDy=0;fontSize=13;verticalAlign=bottom;strokeColor=#FF0000;strokeWidth=2;fontStyle=1;jumpStyle=arc;jumpSize=11;" parent="1" source="V0XUvgyLBSWxk2wAO0TV-16" target="V0XUvgyLBSWxk2wAO0TV-139" edge="1">
          <mxGeometry relative="1" as="geometry">
            <Array as="points">
              <mxPoint x="2780" y="639" />
              <mxPoint x="2780" y="1090" />
              <mxPoint x="2730" y="1090" />
            </Array>
          </mxGeometry>
        </mxCell>
        <mxCell id="V0XUvgyLBSWxk2wAO0TV-16" value="IF ALL&lt;br&gt;MANDATORY FIELDS &lt;br&gt;FILLED" style="rounded=0;whiteSpace=wrap;html=1;strokeWidth=2;fontStyle=1;shape=rhombus;perimeter=rhombusPerimeter;" parent="1" vertex="1">
          <mxGeometry x="2653" y="592.36" width="110" height="93.64" as="geometry" />
        </mxCell>
        <mxCell id="V0XUvgyLBSWxk2wAO0TV-18" style="edgeStyle=orthogonalEdgeStyle;rounded=0;orthogonalLoop=1;jettySize=auto;html=1;exitX=0.5;exitY=0;exitDx=0;exitDy=0;strokeColor=#00CC00;strokeWidth=2;fontStyle=1" parent="1" source="V0XUvgyLBSWxk2wAO0TV-19" target="V0XUvgyLBSWxk2wAO0TV-21" edge="1">
          <mxGeometry relative="1" as="geometry" />
        </mxCell>
        <mxCell id="V0XUvgyLBSWxk2wAO0TV-19" value="REQUEST UPLOAD OF EVIDENCE DOCUMENTS" style="rounded=0;whiteSpace=wrap;html=1;strokeWidth=2;fontStyle=1" parent="1" vertex="1">
          <mxGeometry x="2824" y="903" width="120" height="60" as="geometry" />
        </mxCell>
        <mxCell id="V0XUvgyLBSWxk2wAO0TV-20" style="edgeStyle=orthogonalEdgeStyle;rounded=0;orthogonalLoop=1;jettySize=auto;html=1;exitX=1;exitY=0.75;exitDx=0;exitDy=0;entryX=0.5;entryY=0;entryDx=0;entryDy=0;strokeColor=#00CC00;strokeWidth=2;fontStyle=1" parent="1" source="V0XUvgyLBSWxk2wAO0TV-21" target="V0XUvgyLBSWxk2wAO0TV-34" edge="1">
          <mxGeometry relative="1" as="geometry">
            <Array as="points">
              <mxPoint x="2965" y="471" />
            </Array>
          </mxGeometry>
        </mxCell>
        <mxCell id="V0XUvgyLBSWxk2wAO0TV-21" value="UPLOADS POR DOCUMENT FOR DID SCANNED COPY" style="rounded=0;whiteSpace=wrap;html=1;strokeWidth=2;fontStyle=1;shape=parallelogram;perimeter=parallelogramPerimeter;fixedSize=1;" parent="1" vertex="1">
          <mxGeometry x="2810" y="420" width="150" height="70" as="geometry" />
        </mxCell>
        <mxCell id="V0XUvgyLBSWxk2wAO0TV-22" style="edgeStyle=orthogonalEdgeStyle;rounded=0;orthogonalLoop=1;jettySize=auto;html=1;exitX=1;exitY=0.5;exitDx=0;exitDy=0;entryX=0;entryY=0.5;entryDx=0;entryDy=0;strokeColor=#00CC00;strokeWidth=2;fontStyle=1" parent="1" source="V0XUvgyLBSWxk2wAO0TV-24" target="V0XUvgyLBSWxk2wAO0TV-26" edge="1">
          <mxGeometry relative="1" as="geometry" />
        </mxCell>
        <mxCell id="V0XUvgyLBSWxk2wAO0TV-23" style="edgeStyle=orthogonalEdgeStyle;rounded=0;orthogonalLoop=1;jettySize=auto;html=1;exitX=0.5;exitY=0;exitDx=0;exitDy=0;entryX=0;entryY=0.5;entryDx=0;entryDy=0;strokeColor=#FF0000;strokeWidth=2;fontStyle=1;" parent="1" source="V0XUvgyLBSWxk2wAO0TV-24" target="V0XUvgyLBSWxk2wAO0TV-57" edge="1">
          <mxGeometry relative="1" as="geometry">
            <mxPoint x="3190" y="330" as="targetPoint" />
          </mxGeometry>
        </mxCell>
        <mxCell id="V0XUvgyLBSWxk2wAO0TV-24" value="IF &lt;br&gt;ACCEPT T&amp;amp;C &lt;br&gt;AND ALLOW CAMERA &lt;br&gt;ACCESS" style="rounded=0;whiteSpace=wrap;html=1;strokeWidth=2;fontStyle=1;shape=rhombus;perimeter=rhombusPerimeter;" parent="1" vertex="1">
          <mxGeometry x="3130" y="360" width="120" height="101" as="geometry" />
        </mxCell>
        <mxCell id="V0XUvgyLBSWxk2wAO0TV-25" style="edgeStyle=orthogonalEdgeStyle;rounded=0;orthogonalLoop=1;jettySize=auto;html=1;exitX=0.342;exitY=1.005;exitDx=0;exitDy=0;strokeColor=#00CC00;strokeWidth=2;fontStyle=1;exitPerimeter=0;" parent="1" source="V0XUvgyLBSWxk2wAO0TV-26" target="V0XUvgyLBSWxk2wAO0TV-49" edge="1">
          <mxGeometry relative="1" as="geometry">
            <Array as="points">
              <mxPoint x="3344" y="440" />
              <mxPoint x="3345" y="440" />
            </Array>
          </mxGeometry>
        </mxCell>
        <mxCell id="V0XUvgyLBSWxk2wAO0TV-26" value="CLICKS START TO CAPTURE INTRODUCER FACE WITH FACE OF APPLICANT" style="rounded=0;whiteSpace=wrap;html=1;strokeWidth=2;fontStyle=1" parent="1" vertex="1">
          <mxGeometry x="3280" y="380" width="190" height="60" as="geometry" />
        </mxCell>
        <mxCell id="V0XUvgyLBSWxk2wAO0TV-27" value="RECEIVES APPOINTMENT CONFIRMATION LETTER ON EMAIL" style="rounded=0;whiteSpace=wrap;html=1;strokeWidth=2;fontStyle=1" parent="1" vertex="1">
          <mxGeometry x="3840" y="420" width="120" height="60" as="geometry" />
        </mxCell>
        <mxCell id="V0XUvgyLBSWxk2wAO0TV-28" style="edgeStyle=orthogonalEdgeStyle;rounded=0;orthogonalLoop=1;jettySize=auto;html=1;exitX=0.5;exitY=1;exitDx=0;exitDy=0;entryX=0.5;entryY=0;entryDx=0;entryDy=0;strokeColor=#00CC00;strokeWidth=2;fontStyle=1" parent="1" source="V0XUvgyLBSWxk2wAO0TV-29" target="V0XUvgyLBSWxk2wAO0TV-42" edge="1">
          <mxGeometry relative="1" as="geometry">
            <Array as="points">
              <mxPoint x="3760" y="900" />
              <mxPoint x="3760" y="900" />
            </Array>
          </mxGeometry>
        </mxCell>
        <mxCell id="V0XUvgyLBSWxk2wAO0TV-29" value="SELECT APPOINTMENT CENTER &amp;amp; TIME" style="rounded=0;whiteSpace=wrap;html=1;strokeWidth=2;fontStyle=1" parent="1" vertex="1">
          <mxGeometry x="3700" y="420" width="120" height="60" as="geometry" />
        </mxCell>
        <mxCell id="V0XUvgyLBSWxk2wAO0TV-30" style="edgeStyle=orthogonalEdgeStyle;rounded=0;orthogonalLoop=1;jettySize=auto;html=1;exitX=0.5;exitY=0;exitDx=0;exitDy=0;strokeColor=#00CC00;strokeWidth=2;fontStyle=1;entryX=0.5;entryY=1;entryDx=0;entryDy=0;" parent="1" source="V0XUvgyLBSWxk2wAO0TV-31" target="V0XUvgyLBSWxk2wAO0TV-24" edge="1">
          <mxGeometry relative="1" as="geometry">
            <Array as="points">
              <mxPoint x="3190" y="470" />
            </Array>
            <mxPoint x="3340" y="480" as="targetPoint" />
          </mxGeometry>
        </mxCell>
        <mxCell id="V0XUvgyLBSWxk2wAO0TV-31" value="PROMPTS LIVENESS TEST" style="rounded=0;whiteSpace=wrap;html=1;strokeWidth=2;fontStyle=1" parent="1" vertex="1">
          <mxGeometry x="3130" y="926.5" width="120" height="60" as="geometry" />
        </mxCell>
        <mxCell id="V0XUvgyLBSWxk2wAO0TV-32" value="RESET &lt;br&gt;COUNTER" style="edgeStyle=orthogonalEdgeStyle;rounded=0;orthogonalLoop=1;jettySize=auto;html=1;exitX=0.5;exitY=1;exitDx=0;exitDy=0;strokeColor=#00CC00;strokeWidth=2;fontStyle=1;" parent="1" source="V0XUvgyLBSWxk2wAO0TV-100" target="V0XUvgyLBSWxk2wAO0TV-105" edge="1">
          <mxGeometry x="0.3634" relative="1" as="geometry">
            <mxPoint x="3200" y="925.5" as="targetPoint" />
            <mxPoint as="offset" />
          </mxGeometry>
        </mxCell>
        <mxCell id="V0XUvgyLBSWxk2wAO0TV-33" style="edgeStyle=orthogonalEdgeStyle;rounded=0;orthogonalLoop=1;jettySize=auto;html=1;exitX=1;exitY=0.5;exitDx=0;exitDy=0;entryX=0.153;entryY=-0.039;entryDx=0;entryDy=0;fontSize=13;verticalAlign=bottom;strokeColor=#FF0000;strokeWidth=2;fontStyle=1;entryPerimeter=0;" parent="1" source="V0XUvgyLBSWxk2wAO0TV-34" target="V0XUvgyLBSWxk2wAO0TV-122" edge="1">
          <mxGeometry relative="1" as="geometry">
            <Array as="points">
              <mxPoint x="3100" y="633" />
              <mxPoint x="3100" y="1080" />
              <mxPoint x="3324" y="1080" />
              <mxPoint x="3324" y="1098" />
            </Array>
          </mxGeometry>
        </mxCell>
        <mxCell id="NzUfy9cO0BzUcHue6pzK-2" style="edgeStyle=orthogonalEdgeStyle;rounded=0;orthogonalLoop=1;jettySize=auto;html=1;exitX=0.5;exitY=1;exitDx=0;exitDy=0;strokeColor=#00CC00;strokeWidth=2;fontStyle=1;" parent="1" source="V0XUvgyLBSWxk2wAO0TV-34" target="V0XUvgyLBSWxk2wAO0TV-100" edge="1">
          <mxGeometry relative="1" as="geometry" />
        </mxCell>
        <mxCell id="V0XUvgyLBSWxk2wAO0TV-34" value="IF FILE&lt;br&gt;SIZE &amp;amp; FORMAT ACCEPTED" style="rounded=0;whiteSpace=wrap;html=1;strokeWidth=2;fontStyle=1;shape=rhombus;perimeter=rhombusPerimeter;" parent="1" vertex="1">
          <mxGeometry x="2905" y="591" width="120" height="84" as="geometry" />
        </mxCell>
        <mxCell id="V0XUvgyLBSWxk2wAO0TV-35" style="edgeStyle=orthogonalEdgeStyle;rounded=0;orthogonalLoop=1;jettySize=auto;html=1;exitX=1;exitY=0.5;exitDx=0;exitDy=0;strokeColor=#00CC00;strokeWidth=2;fontStyle=1" parent="1" source="V0XUvgyLBSWxk2wAO0TV-27" target="V0XUvgyLBSWxk2wAO0TV-94" edge="1">
          <mxGeometry relative="1" as="geometry">
            <mxPoint x="4060" y="1165.5" as="targetPoint" />
          </mxGeometry>
        </mxCell>
        <mxCell id="V0XUvgyLBSWxk2wAO0TV-36" style="edgeStyle=orthogonalEdgeStyle;rounded=0;orthogonalLoop=1;jettySize=auto;html=1;exitX=1;exitY=0.25;exitDx=0;exitDy=0;entryX=0.5;entryY=1;entryDx=0;entryDy=0;strokeColor=#00CC00;strokeWidth=2;fontStyle=1;jumpStyle=arc;jumpSize=11;" parent="1" source="V0XUvgyLBSWxk2wAO0TV-105" target="V0XUvgyLBSWxk2wAO0TV-31" edge="1">
          <mxGeometry relative="1" as="geometry">
            <mxPoint x="3280" y="945.5" as="sourcePoint" />
          </mxGeometry>
        </mxCell>
        <mxCell id="V0XUvgyLBSWxk2wAO0TV-37" value="INTRODUCER" style="text;html=1;align=center;verticalAlign=middle;resizable=0;points=[];autosize=1;strokeColor=none;fillColor=none;fontSize=25;fontStyle=1;strokeWidth=2;horizontal=0;" parent="1" vertex="1">
          <mxGeometry x="2175" y="250" width="50" height="180" as="geometry" />
        </mxCell>
        <mxCell id="V0XUvgyLBSWxk2wAO0TV-38" value="OB.1.2" style="text;html=1;align=center;verticalAlign=middle;resizable=0;points=[];autosize=1;strokeColor=none;fillColor=none;fontSize=30;fontStyle=1" parent="1" vertex="1">
          <mxGeometry x="3100" y="110" width="120" height="50" as="geometry" />
        </mxCell>
        <mxCell id="V0XUvgyLBSWxk2wAO0TV-39" value="&lt;br&gt;&lt;table style=&quot;border-collapse:&lt;br/&gt; collapse;width:310pt&quot; width=&quot;413&quot; cellspacing=&quot;0&quot; cellpadding=&quot;0&quot; border=&quot;0&quot;&gt;&lt;tbody&gt;&lt;tr style=&quot;height:14.4pt&quot; height=&quot;19&quot;&gt;  &lt;td style=&quot;height:14.4pt;width:310pt&quot; width=&quot;413&quot; class=&quot;xl65&quot; height=&quot;19&quot;&gt;ONLINE APPLICATION: &lt;br&gt;APPLICATION INITIATED BY INTRODUCER&amp;nbsp;&lt;/td&gt;&lt;/tr&gt;&lt;/tbody&gt;&lt;/table&gt;" style="text;html=1;align=right;verticalAlign=middle;resizable=0;points=[];autosize=1;strokeColor=none;fillColor=none;fontSize=30;fontStyle=1" parent="1" vertex="1">
          <mxGeometry x="3500" y="60" width="640" height="120" as="geometry" />
        </mxCell>
        <mxCell id="V0XUvgyLBSWxk2wAO0TV-40" value="C" style="ellipse;whiteSpace=wrap;html=1;aspect=fixed;fontSize=28;fontColor=default;strokeWidth=2;fontStyle=1" parent="1" vertex="1">
          <mxGeometry x="2180" y="115" width="40" height="40" as="geometry" />
        </mxCell>
        <mxCell id="V0XUvgyLBSWxk2wAO0TV-41" value="RESET COUNTER" style="edgeStyle=orthogonalEdgeStyle;rounded=0;orthogonalLoop=1;jettySize=auto;html=1;exitX=1;exitY=0.5;exitDx=0;exitDy=0;entryX=0.5;entryY=1;entryDx=0;entryDy=0;strokeColor=#00CC00;strokeWidth=2;fontStyle=1;" parent="1" source="V0XUvgyLBSWxk2wAO0TV-42" target="V0XUvgyLBSWxk2wAO0TV-27" edge="1">
          <mxGeometry x="-0.6585" relative="1" as="geometry">
            <mxPoint x="3870" y="975" as="targetPoint" />
            <mxPoint as="offset" />
          </mxGeometry>
        </mxCell>
        <mxCell id="V0XUvgyLBSWxk2wAO0TV-42" value="CHECK SLOT AVAILABILITY AND BLOCKS APPOINTMENT" style="rounded=0;whiteSpace=wrap;html=1;strokeWidth=2;fontStyle=1" parent="1" vertex="1">
          <mxGeometry x="3700" y="985.5" width="120" height="60" as="geometry" />
        </mxCell>
        <mxCell id="V0XUvgyLBSWxk2wAO0TV-43" style="edgeStyle=orthogonalEdgeStyle;rounded=0;orthogonalLoop=1;jettySize=auto;html=1;exitX=0.5;exitY=1;exitDx=0;exitDy=0;exitPerimeter=0;entryX=0.5;entryY=0;entryDx=0;entryDy=0;strokeColor=#00CC00;strokeWidth=2;fontStyle=1;" parent="1" source="V0XUvgyLBSWxk2wAO0TV-44" target="V0XUvgyLBSWxk2wAO0TV-6" edge="1">
          <mxGeometry relative="1" as="geometry" />
        </mxCell>
        <mxCell id="V0XUvgyLBSWxk2wAO0TV-44" value="&lt;b&gt;START&lt;/b&gt;" style="strokeWidth=2;html=1;shape=mxgraph.flowchart.terminator;whiteSpace=wrap;fillColor=#d5e8d4;strokeColor=#82b366;" parent="1" vertex="1">
          <mxGeometry x="2310" y="240" width="100" height="40" as="geometry" />
        </mxCell>
        <mxCell id="V0XUvgyLBSWxk2wAO0TV-45" style="edgeStyle=orthogonalEdgeStyle;rounded=0;orthogonalLoop=1;jettySize=auto;html=1;exitX=0.5;exitY=0;exitDx=0;exitDy=0;exitPerimeter=0;entryX=0.5;entryY=1;entryDx=0;entryDy=0;strokeColor=#00CC00;strokeWidth=2;fontStyle=1;jumpStyle=arc;jumpSize=11;" parent="1" source="V0XUvgyLBSWxk2wAO0TV-46" target="V0XUvgyLBSWxk2wAO0TV-127" edge="1">
          <mxGeometry relative="1" as="geometry" />
        </mxCell>
        <mxCell id="V0XUvgyLBSWxk2wAO0TV-46" value="&lt;span style=&quot;border-color: var(--border-color);&quot;&gt;&lt;b&gt;TERMINATE PROCESS:&lt;br&gt;&lt;/b&gt;&lt;/span&gt;WITH ERROR MESSAGE" style="strokeWidth=2;html=1;shape=mxgraph.flowchart.terminator;whiteSpace=wrap;fillColor=#f8cecc;strokeColor=#b85450;" parent="1" vertex="1">
          <mxGeometry x="3890" y="1280" width="160" height="60" as="geometry" />
        </mxCell>
        <mxCell id="V0XUvgyLBSWxk2wAO0TV-47" style="edgeStyle=orthogonalEdgeStyle;rounded=0;orthogonalLoop=1;jettySize=auto;html=1;exitX=0.5;exitY=1;exitDx=0;exitDy=0;fontSize=13;verticalAlign=bottom;strokeColor=#FF0000;strokeWidth=2;fontStyle=1;entryX=0.282;entryY=-0.022;entryDx=0;entryDy=0;entryPerimeter=0;" parent="1" source="V0XUvgyLBSWxk2wAO0TV-49" target="V0XUvgyLBSWxk2wAO0TV-122" edge="1">
          <mxGeometry relative="1" as="geometry">
            <Array as="points" />
          </mxGeometry>
        </mxCell>
        <mxCell id="V0XUvgyLBSWxk2wAO0TV-48" style="edgeStyle=orthogonalEdgeStyle;rounded=0;orthogonalLoop=1;jettySize=auto;html=1;exitX=1;exitY=0.5;exitDx=0;exitDy=0;strokeColor=#00CC00;strokeWidth=2;fontStyle=1;entryX=0.5;entryY=0;entryDx=0;entryDy=0;" parent="1" source="V0XUvgyLBSWxk2wAO0TV-49" target="V0XUvgyLBSWxk2wAO0TV-118" edge="1">
          <mxGeometry relative="1" as="geometry" />
        </mxCell>
        <mxCell id="V0XUvgyLBSWxk2wAO0TV-49" value="IF &lt;br&gt;IMAGE QUALITY ACCEPTED" style="rounded=0;whiteSpace=wrap;html=1;strokeWidth=2;fontStyle=1;shape=rhombus;perimeter=rhombusPerimeter;" parent="1" vertex="1">
          <mxGeometry x="3290" y="620" width="110" height="100" as="geometry" />
        </mxCell>
        <mxCell id="V0XUvgyLBSWxk2wAO0TV-50" style="edgeStyle=orthogonalEdgeStyle;rounded=0;orthogonalLoop=1;jettySize=auto;html=1;exitX=1;exitY=0.5;exitDx=0;exitDy=0;entryX=0;entryY=0.5;entryDx=0;entryDy=0;strokeColor=#00CC00;strokeWidth=2;fontStyle=1;" parent="1" source="V0XUvgyLBSWxk2wAO0TV-51" target="V0XUvgyLBSWxk2wAO0TV-131" edge="1">
          <mxGeometry relative="1" as="geometry" />
        </mxCell>
        <mxCell id="V0XUvgyLBSWxk2wAO0TV-51" value="&lt;u&gt;FILL FORM WITH APPLICANT DETAILS:&lt;/u&gt;&lt;br style=&quot;border-color: var(--border-color);&quot;&gt;GIVEN NAME&lt;br style=&quot;border-color: var(--border-color);&quot;&gt;FAMILY NAME&lt;br style=&quot;border-color: var(--border-color);&quot;&gt;DOB&lt;br style=&quot;border-color: var(--border-color);&quot;&gt;ADDRESS&lt;br style=&quot;border-color: var(--border-color);&quot;&gt;(CLAIMED)&lt;br style=&quot;border-color: var(--border-color);&quot;&gt;EMAIL&lt;br style=&quot;border-color: var(--border-color);&quot;&gt;PHONE NUMBER" style="shape=parallelogram;perimeter=parallelogramPerimeter;whiteSpace=wrap;html=1;fixedSize=1;align=center;rounded=0;strokeWidth=2;fontStyle=1;verticalAlign=middle;" parent="1" vertex="1">
          <mxGeometry x="2445" y="210.5" width="210" height="150" as="geometry" />
        </mxCell>
        <mxCell id="V0XUvgyLBSWxk2wAO0TV-52" style="edgeStyle=orthogonalEdgeStyle;rounded=0;orthogonalLoop=1;jettySize=auto;html=1;exitX=1;exitY=0.5;exitDx=0;exitDy=0;fontSize=13;verticalAlign=bottom;strokeColor=#FF0000;strokeWidth=2;fontStyle=1;entryX=0.25;entryY=0;entryDx=0;entryDy=0;" parent="1" source="V0XUvgyLBSWxk2wAO0TV-134" target="V0XUvgyLBSWxk2wAO0TV-139" edge="1">
          <mxGeometry relative="1" as="geometry">
            <Array as="points">
              <mxPoint x="2530" y="660" />
              <mxPoint x="2530" y="1070" />
              <mxPoint x="2625" y="1070" />
            </Array>
          </mxGeometry>
        </mxCell>
        <mxCell id="V0XUvgyLBSWxk2wAO0TV-54" style="edgeStyle=orthogonalEdgeStyle;rounded=0;orthogonalLoop=1;jettySize=auto;html=1;exitX=1;exitY=0.5;exitDx=0;exitDy=0;fontSize=11;fillColor=default;strokeWidth=2;fontStyle=1;strokeColor=#00CC00;" parent="1" source="V0XUvgyLBSWxk2wAO0TV-55" target="V0XUvgyLBSWxk2wAO0TV-94" edge="1">
          <mxGeometry relative="1" as="geometry" />
        </mxCell>
        <mxCell id="V0XUvgyLBSWxk2wAO0TV-55" value="PROCEED TO OFFLINE APPLICATION BY INTRODUCER:&lt;br&gt;&lt;u&gt;OB.1.3.C&lt;/u&gt;" style="strokeWidth=2;html=1;shape=label;whiteSpace=wrap;fillColor=default;strokeColor=default;rounded=0;fontStyle=1;" parent="1" vertex="1">
          <mxGeometry x="3830" y="242" width="200" height="65" as="geometry" />
        </mxCell>
        <mxCell id="V0XUvgyLBSWxk2wAO0TV-56" style="edgeStyle=orthogonalEdgeStyle;rounded=0;orthogonalLoop=1;jettySize=auto;html=1;exitX=1;exitY=0.5;exitDx=0;exitDy=0;entryX=0;entryY=0.5;entryDx=0;entryDy=0;entryPerimeter=0;strokeColor=#00CC00;strokeWidth=2;fontStyle=1;" parent="1" source="V0XUvgyLBSWxk2wAO0TV-57" target="V0XUvgyLBSWxk2wAO0TV-55" edge="1">
          <mxGeometry relative="1" as="geometry" />
        </mxCell>
        <mxCell id="V0XUvgyLBSWxk2wAO0TV-57" value="DOWNLOAD APPLICATION WITH FILLED DETAILS" style="rounded=0;whiteSpace=wrap;html=1;strokeWidth=2;fontStyle=1" parent="1" vertex="1">
          <mxGeometry x="3450" y="245" width="120" height="60" as="geometry" />
        </mxCell>
        <mxCell id="V0XUvgyLBSWxk2wAO0TV-58" value="PUBLIC NETWORK&lt;br style=&quot;border-color: var(--border-color);&quot;&gt;SYSTEMS (CLIENT)" style="text;html=1;align=center;verticalAlign=middle;resizable=0;points=[];autosize=1;strokeColor=none;fillColor=none;fontStyle=1;fontSize=25;strokeWidth=2;horizontal=0;" parent="1" vertex="1">
          <mxGeometry x="2180" y="597" width="70" height="190" as="geometry" />
        </mxCell>
        <mxCell id="V0XUvgyLBSWxk2wAO0TV-59" value="PRIVATE NETWORK SYSTEMS (SERVER)" style="text;html=1;align=center;verticalAlign=middle;resizable=0;points=[];autosize=1;strokeColor=none;fillColor=none;fontStyle=1;fontSize=25;strokeWidth=2;horizontal=0;" parent="1" vertex="1">
          <mxGeometry x="2190" y="869.75" width="50" height="510" as="geometry" />
        </mxCell>
        <mxCell id="V0XUvgyLBSWxk2wAO0TV-60" value="&lt;font style=&quot;font-size: 14px;&quot;&gt;PUBLIC NETWORK&lt;/font&gt;" style="swimlane;whiteSpace=wrap;html=1;" parent="1" vertex="1">
          <mxGeometry x="4170" y="810" width="200" height="167" as="geometry" />
        </mxCell>
        <mxCell id="V0XUvgyLBSWxk2wAO0TV-61" value="DNS SERVERS" style="text;html=1;strokeColor=none;fillColor=none;align=center;verticalAlign=middle;whiteSpace=wrap;rounded=0;fontSize=14;" parent="V0XUvgyLBSWxk2wAO0TV-60" vertex="1">
          <mxGeometry y="27" width="200" height="28" as="geometry" />
        </mxCell>
        <mxCell id="V0XUvgyLBSWxk2wAO0TV-62" value="FTP SERVERS" style="text;html=1;strokeColor=none;fillColor=none;align=center;verticalAlign=middle;whiteSpace=wrap;rounded=0;fontSize=14;" parent="V0XUvgyLBSWxk2wAO0TV-60" vertex="1">
          <mxGeometry y="55" width="200" height="28" as="geometry" />
        </mxCell>
        <mxCell id="V0XUvgyLBSWxk2wAO0TV-63" value="MAIL SERVERS" style="text;html=1;strokeColor=none;fillColor=none;align=center;verticalAlign=middle;whiteSpace=wrap;rounded=0;fontSize=14;" parent="V0XUvgyLBSWxk2wAO0TV-60" vertex="1">
          <mxGeometry y="83" width="200" height="28" as="geometry" />
        </mxCell>
        <mxCell id="V0XUvgyLBSWxk2wAO0TV-64" value="PROXY SERVERS" style="text;html=1;strokeColor=none;fillColor=none;align=center;verticalAlign=middle;whiteSpace=wrap;rounded=0;fontSize=14;" parent="V0XUvgyLBSWxk2wAO0TV-60" vertex="1">
          <mxGeometry y="111" width="200" height="28" as="geometry" />
        </mxCell>
        <mxCell id="V0XUvgyLBSWxk2wAO0TV-65" value="WEB SERVERS" style="text;html=1;strokeColor=none;fillColor=none;align=center;verticalAlign=middle;whiteSpace=wrap;rounded=0;fontSize=14;" parent="V0XUvgyLBSWxk2wAO0TV-60" vertex="1">
          <mxGeometry y="139" width="200" height="28" as="geometry" />
        </mxCell>
        <mxCell id="V0XUvgyLBSWxk2wAO0TV-66" value="&lt;font style=&quot;font-size: 14px;&quot;&gt;LEGEND&lt;/font&gt;" style="swimlane;whiteSpace=wrap;html=1;" parent="1" vertex="1">
          <mxGeometry x="4170" y="180" width="200" height="260" as="geometry" />
        </mxCell>
        <mxCell id="V0XUvgyLBSWxk2wAO0TV-67" value="KM" style="ellipse;whiteSpace=wrap;html=1;fillColor=#dae8fc;strokeColor=#6c8ebf;gradientColor=#7ea6e0;fontStyle=1" parent="V0XUvgyLBSWxk2wAO0TV-66" vertex="1">
          <mxGeometry x="10" y="30" width="30" height="26" as="geometry" />
        </mxCell>
        <mxCell id="V0XUvgyLBSWxk2wAO0TV-68" value="IDA" style="ellipse;whiteSpace=wrap;html=1;fillColor=#dae8fc;strokeColor=#6c8ebf;gradientColor=#7ea6e0;fontStyle=1" parent="V0XUvgyLBSWxk2wAO0TV-66" vertex="1">
          <mxGeometry x="10" y="131" width="30" height="26" as="geometry" />
        </mxCell>
        <mxCell id="V0XUvgyLBSWxk2wAO0TV-69" value="HSM" style="ellipse;whiteSpace=wrap;html=1;fillColor=#dae8fc;strokeColor=#6c8ebf;gradientColor=#7ea6e0;fontStyle=1" parent="V0XUvgyLBSWxk2wAO0TV-66" vertex="1">
          <mxGeometry x="10" y="91" width="30" height="26" as="geometry" />
        </mxCell>
        <mxCell id="V0XUvgyLBSWxk2wAO0TV-70" value="KR" style="ellipse;whiteSpace=wrap;html=1;fillColor=#dae8fc;strokeColor=#6c8ebf;gradientColor=#7ea6e0;fontStyle=1" parent="V0XUvgyLBSWxk2wAO0TV-66" vertex="1">
          <mxGeometry x="10" y="59" width="30" height="26" as="geometry" />
        </mxCell>
        <mxCell id="V0XUvgyLBSWxk2wAO0TV-71" value="Key Manager" style="text;html=1;strokeColor=none;fillColor=none;align=center;verticalAlign=middle;whiteSpace=wrap;rounded=0;fontSize=14;" parent="V0XUvgyLBSWxk2wAO0TV-66" vertex="1">
          <mxGeometry x="40" y="30" width="160" height="28" as="geometry" />
        </mxCell>
        <mxCell id="V0XUvgyLBSWxk2wAO0TV-72" value="Key Revocation" style="text;html=1;strokeColor=none;fillColor=none;align=center;verticalAlign=middle;whiteSpace=wrap;rounded=0;fontSize=14;" parent="V0XUvgyLBSWxk2wAO0TV-66" vertex="1">
          <mxGeometry x="40" y="58" width="160" height="28" as="geometry" />
        </mxCell>
        <mxCell id="V0XUvgyLBSWxk2wAO0TV-73" value="Hardware Security Module" style="text;html=1;strokeColor=none;fillColor=none;align=center;verticalAlign=middle;whiteSpace=wrap;rounded=0;fontSize=14;" parent="V0XUvgyLBSWxk2wAO0TV-66" vertex="1">
          <mxGeometry x="40" y="90" width="160" height="28" as="geometry" />
        </mxCell>
        <mxCell id="V0XUvgyLBSWxk2wAO0TV-74" value="ID Authentication (DB)" style="text;html=1;strokeColor=none;fillColor=none;align=center;verticalAlign=middle;whiteSpace=wrap;rounded=0;fontSize=14;" parent="V0XUvgyLBSWxk2wAO0TV-66" vertex="1">
          <mxGeometry x="40" y="130" width="160" height="28" as="geometry" />
        </mxCell>
        <mxCell id="V0XUvgyLBSWxk2wAO0TV-75" value="AC" style="ellipse;whiteSpace=wrap;html=1;fillColor=#dae8fc;strokeColor=#6c8ebf;gradientColor=#7ea6e0;fontStyle=1" parent="V0XUvgyLBSWxk2wAO0TV-66" vertex="1">
          <mxGeometry x="10" y="161" width="30" height="26" as="geometry" />
        </mxCell>
        <mxCell id="V0XUvgyLBSWxk2wAO0TV-76" value="Access Control" style="text;html=1;strokeColor=none;fillColor=none;align=center;verticalAlign=middle;whiteSpace=wrap;rounded=0;fontSize=14;" parent="V0XUvgyLBSWxk2wAO0TV-66" vertex="1">
          <mxGeometry x="40" y="160" width="160" height="28" as="geometry" />
        </mxCell>
        <mxCell id="V0XUvgyLBSWxk2wAO0TV-77" value="Certificate Authority" style="text;html=1;strokeColor=none;fillColor=none;align=center;verticalAlign=middle;whiteSpace=wrap;rounded=0;fontSize=14;" parent="V0XUvgyLBSWxk2wAO0TV-66" vertex="1">
          <mxGeometry x="40" y="190" width="160" height="28" as="geometry" />
        </mxCell>
        <mxCell id="V0XUvgyLBSWxk2wAO0TV-78" value="CA" style="ellipse;whiteSpace=wrap;html=1;fillColor=#dae8fc;strokeColor=#6c8ebf;gradientColor=#7ea6e0;fontStyle=1" parent="V0XUvgyLBSWxk2wAO0TV-66" vertex="1">
          <mxGeometry x="10" y="191" width="30" height="26" as="geometry" />
        </mxCell>
        <mxCell id="V0XUvgyLBSWxk2wAO0TV-79" value="POR" style="text;html=1;align=center;verticalAlign=middle;resizable=0;points=[];autosize=1;strokeColor=none;fillColor=none;fontSize=14;rounded=0;" parent="V0XUvgyLBSWxk2wAO0TV-66" vertex="1">
          <mxGeometry y="224" width="50" height="30" as="geometry" />
        </mxCell>
        <mxCell id="V0XUvgyLBSWxk2wAO0TV-82" value="Proof of Relationship" style="text;html=1;align=center;verticalAlign=middle;resizable=0;points=[];autosize=1;strokeColor=none;fillColor=none;fontSize=14;rounded=0;" parent="V0XUvgyLBSWxk2wAO0TV-66" vertex="1">
          <mxGeometry x="50" y="224" width="150" height="30" as="geometry" />
        </mxCell>
        <mxCell id="V0XUvgyLBSWxk2wAO0TV-85" value="I" style="shape=umlActor;verticalLabelPosition=bottom;verticalAlign=top;html=1;outlineConnect=0;fontStyle=1" parent="1" vertex="1">
          <mxGeometry x="2230" y="293" width="30" height="60" as="geometry" />
        </mxCell>
        <mxCell id="V0XUvgyLBSWxk2wAO0TV-86" value="" style="group" parent="1" vertex="1" connectable="0">
          <mxGeometry x="2618" y="721.5" width="150" height="78" as="geometry" />
        </mxCell>
        <mxCell id="V0XUvgyLBSWxk2wAO0TV-87" value="MASK &amp;amp; ENCRYPT APPLICATION DETAILS&amp;nbsp;" style="rounded=0;whiteSpace=wrap;html=1;fontStyle=1;strokeWidth=2;" parent="V0XUvgyLBSWxk2wAO0TV-86" vertex="1">
          <mxGeometry x="30" y="9" width="120" height="60" as="geometry" />
        </mxCell>
        <mxCell id="V0XUvgyLBSWxk2wAO0TV-88" value="CA" style="ellipse;whiteSpace=wrap;html=1;fillColor=#dae8fc;strokeColor=#6c8ebf;gradientColor=#7ea6e0;fontStyle=1" parent="V0XUvgyLBSWxk2wAO0TV-86" vertex="1">
          <mxGeometry y="52" width="30" height="26" as="geometry" />
        </mxCell>
        <mxCell id="V0XUvgyLBSWxk2wAO0TV-89" value="HSM" style="ellipse;whiteSpace=wrap;html=1;fillColor=#dae8fc;strokeColor=#6c8ebf;gradientColor=#7ea6e0;fontStyle=1" parent="V0XUvgyLBSWxk2wAO0TV-86" vertex="1">
          <mxGeometry y="26" width="30" height="26" as="geometry" />
        </mxCell>
        <mxCell id="V0XUvgyLBSWxk2wAO0TV-90" value="KM" style="ellipse;whiteSpace=wrap;html=1;fillColor=#dae8fc;strokeColor=#6c8ebf;gradientColor=#7ea6e0;fontStyle=1" parent="V0XUvgyLBSWxk2wAO0TV-86" vertex="1">
          <mxGeometry width="30" height="26" as="geometry" />
        </mxCell>
        <mxCell id="V0XUvgyLBSWxk2wAO0TV-93" value="" style="edgeStyle=orthogonalEdgeStyle;rounded=0;orthogonalLoop=1;jettySize=auto;html=1;strokeColor=#00CC00;fontStyle=1;strokeWidth=2;" parent="1" source="V0XUvgyLBSWxk2wAO0TV-94" target="V0XUvgyLBSWxk2wAO0TV-95" edge="1">
          <mxGeometry relative="1" as="geometry" />
        </mxCell>
        <mxCell id="V0XUvgyLBSWxk2wAO0TV-94" value="LOGS THE PROCESS AND STATUS" style="rounded=0;whiteSpace=wrap;html=1;fontStyle=1;strokeWidth=2;shape=label;boundedLbl=1;backgroundOutline=1;size=15;" parent="1" vertex="1">
          <mxGeometry x="4007" y="1000" width="120" height="45" as="geometry" />
        </mxCell>
        <mxCell id="V0XUvgyLBSWxk2wAO0TV-95" value="&lt;b&gt;END&lt;/b&gt;" style="strokeWidth=2;html=1;shape=mxgraph.flowchart.terminator;whiteSpace=wrap;fillColor=#f8cecc;strokeColor=#b85450;" parent="1" vertex="1">
          <mxGeometry x="4017" y="1074" width="100" height="40" as="geometry" />
        </mxCell>
        <mxCell id="V0XUvgyLBSWxk2wAO0TV-96" value="IDA" style="ellipse;whiteSpace=wrap;html=1;fillColor=#dae8fc;strokeColor=#6c8ebf;gradientColor=#7ea6e0;fontStyle=1" parent="1" vertex="1">
          <mxGeometry x="4007" y="972.25" width="30" height="26" as="geometry" />
        </mxCell>
        <mxCell id="V0XUvgyLBSWxk2wAO0TV-97" style="edgeStyle=orthogonalEdgeStyle;rounded=0;orthogonalLoop=1;jettySize=auto;html=1;exitX=1;exitY=0.5;exitDx=0;exitDy=0;entryX=0.5;entryY=1;entryDx=0;entryDy=0;fontSize=11;verticalAlign=middle;strokeColor=#00CC00;strokeWidth=2;fontStyle=1;jumpStyle=arc;jumpSize=11;" parent="1" edge="1">
          <mxGeometry relative="1" as="geometry">
            <Array as="points">
              <mxPoint x="2795" y="1244.5" />
            </Array>
            <mxPoint x="2775" y="1244.5" as="sourcePoint" />
            <mxPoint x="2795" y="370" as="targetPoint" />
          </mxGeometry>
        </mxCell>
        <mxCell id="V0XUvgyLBSWxk2wAO0TV-98" value="IF RETRY &lt;br&gt;COUNT &amp;lt;=3" style="rhombus;whiteSpace=wrap;html=1;fontStyle=1;strokeWidth=2;fontSize=11;" parent="1" vertex="1">
          <mxGeometry x="2670" y="1190" width="110" height="90" as="geometry" />
        </mxCell>
        <mxCell id="V0XUvgyLBSWxk2wAO0TV-99" value="" style="group" parent="1" vertex="1" connectable="0">
          <mxGeometry x="2900" y="712.5" width="150" height="78" as="geometry" />
        </mxCell>
        <mxCell id="V0XUvgyLBSWxk2wAO0TV-100" value="MASK &amp;amp; ENCRYPT UPLOADED FILE" style="rounded=0;whiteSpace=wrap;html=1;fontStyle=1;strokeWidth=2;" parent="V0XUvgyLBSWxk2wAO0TV-99" vertex="1">
          <mxGeometry x="30" y="9" width="120" height="60" as="geometry" />
        </mxCell>
        <mxCell id="V0XUvgyLBSWxk2wAO0TV-101" value="CA" style="ellipse;whiteSpace=wrap;html=1;fillColor=#dae8fc;strokeColor=#6c8ebf;gradientColor=#7ea6e0;fontStyle=1" parent="V0XUvgyLBSWxk2wAO0TV-99" vertex="1">
          <mxGeometry y="52" width="30" height="26" as="geometry" />
        </mxCell>
        <mxCell id="V0XUvgyLBSWxk2wAO0TV-102" value="HSM" style="ellipse;whiteSpace=wrap;html=1;fillColor=#dae8fc;strokeColor=#6c8ebf;gradientColor=#7ea6e0;fontStyle=1" parent="V0XUvgyLBSWxk2wAO0TV-99" vertex="1">
          <mxGeometry y="26" width="30" height="26" as="geometry" />
        </mxCell>
        <mxCell id="V0XUvgyLBSWxk2wAO0TV-103" value="KM" style="ellipse;whiteSpace=wrap;html=1;fillColor=#dae8fc;strokeColor=#6c8ebf;gradientColor=#7ea6e0;fontStyle=1" parent="V0XUvgyLBSWxk2wAO0TV-99" vertex="1">
          <mxGeometry width="30" height="26" as="geometry" />
        </mxCell>
        <mxCell id="V0XUvgyLBSWxk2wAO0TV-106" value="IDA" style="ellipse;whiteSpace=wrap;html=1;fillColor=#dae8fc;strokeColor=#6c8ebf;gradientColor=#7ea6e0;fontStyle=1" parent="1" vertex="1">
          <mxGeometry x="2975" y="1151.75" width="30" height="26" as="geometry" />
        </mxCell>
        <mxCell id="V0XUvgyLBSWxk2wAO0TV-107" value="KM" style="ellipse;whiteSpace=wrap;html=1;fillColor=#dae8fc;strokeColor=#6c8ebf;gradientColor=#7ea6e0;fontStyle=1" parent="1" vertex="1">
          <mxGeometry x="2944" y="1179.75" width="30" height="26" as="geometry" />
        </mxCell>
        <mxCell id="V0XUvgyLBSWxk2wAO0TV-108" value="HSM" style="ellipse;whiteSpace=wrap;html=1;fillColor=#dae8fc;strokeColor=#6c8ebf;gradientColor=#7ea6e0;fontStyle=1" parent="1" vertex="1">
          <mxGeometry x="2945" y="1240" width="30" height="26" as="geometry" />
        </mxCell>
        <mxCell id="V0XUvgyLBSWxk2wAO0TV-109" style="edgeStyle=orthogonalEdgeStyle;rounded=0;orthogonalLoop=1;jettySize=auto;html=1;exitX=1;exitY=0.5;exitDx=0;exitDy=0;entryX=0.75;entryY=1;entryDx=0;entryDy=0;strokeColor=#00CC00;strokeWidth=2;fontStyle=1;jumpStyle=arc;jumpSize=11;" parent="1" source="V0XUvgyLBSWxk2wAO0TV-112" target="V0XUvgyLBSWxk2wAO0TV-26" edge="1">
          <mxGeometry relative="1" as="geometry">
            <Array as="points">
              <mxPoint x="3470" y="1225" />
              <mxPoint x="3470" y="490" />
              <mxPoint x="3423" y="490" />
            </Array>
          </mxGeometry>
        </mxCell>
        <mxCell id="V0XUvgyLBSWxk2wAO0TV-110" style="edgeStyle=orthogonalEdgeStyle;rounded=0;orthogonalLoop=1;jettySize=auto;html=1;exitX=0.5;exitY=1;exitDx=0;exitDy=0;entryX=0.5;entryY=1;entryDx=0;entryDy=0;strokeColor=#FF0000;strokeWidth=2;fontStyle=1;jumpStyle=arc;jumpSize=11;" parent="1" source="V0XUvgyLBSWxk2wAO0TV-112" target="V0XUvgyLBSWxk2wAO0TV-57" edge="1">
          <mxGeometry relative="1" as="geometry">
            <Array as="points">
              <mxPoint x="3379" y="1280" />
              <mxPoint x="3510" y="1280" />
            </Array>
          </mxGeometry>
        </mxCell>
        <mxCell id="V0XUvgyLBSWxk2wAO0TV-111" style="edgeStyle=orthogonalEdgeStyle;rounded=0;orthogonalLoop=1;jettySize=auto;html=1;exitX=0;exitY=0.5;exitDx=0;exitDy=0;entryX=1;entryY=0.25;entryDx=0;entryDy=0;fontSize=11;verticalAlign=middle;strokeColor=#00CC00;strokeWidth=2;fontStyle=1;jumpStyle=arc;jumpSize=11;" parent="1" source="V0XUvgyLBSWxk2wAO0TV-112" target="V0XUvgyLBSWxk2wAO0TV-21" edge="1">
          <mxGeometry relative="1" as="geometry">
            <Array as="points">
              <mxPoint x="3270" y="1225" />
              <mxPoint x="3270" y="600" />
              <mxPoint x="3090" y="600" />
              <mxPoint x="3090" y="439" />
            </Array>
          </mxGeometry>
        </mxCell>
        <mxCell id="V0XUvgyLBSWxk2wAO0TV-112" value="IF RETRY &lt;br&gt;COUNT &amp;lt;=3" style="rhombus;whiteSpace=wrap;html=1;fontStyle=1;strokeWidth=2;fontSize=11;" parent="1" vertex="1">
          <mxGeometry x="3324.5" y="1179.75" width="110" height="90" as="geometry" />
        </mxCell>
        <mxCell id="V0XUvgyLBSWxk2wAO0TV-113" style="edgeStyle=orthogonalEdgeStyle;rounded=0;orthogonalLoop=1;jettySize=auto;html=1;exitX=0.5;exitY=1;exitDx=0;exitDy=0;entryX=0;entryY=0.5;entryDx=0;entryDy=0;entryPerimeter=0;strokeColor=#FF0000;strokeWidth=2;fontStyle=1;" parent="1" source="V0XUvgyLBSWxk2wAO0TV-98" target="V0XUvgyLBSWxk2wAO0TV-46" edge="1">
          <mxGeometry relative="1" as="geometry" />
        </mxCell>
        <mxCell id="V0XUvgyLBSWxk2wAO0TV-114" style="edgeStyle=orthogonalEdgeStyle;rounded=0;orthogonalLoop=1;jettySize=auto;html=1;exitX=0;exitY=0.5;exitDx=0;exitDy=0;fontSize=13;verticalAlign=bottom;strokeColor=#FF0000;strokeWidth=2;fontStyle=1;jumpStyle=arc;jumpSize=11;" parent="1" source="V0XUvgyLBSWxk2wAO0TV-116" target="V0XUvgyLBSWxk2wAO0TV-122" edge="1">
          <mxGeometry relative="1" as="geometry">
            <Array as="points">
              <mxPoint x="3385" y="1013" />
            </Array>
          </mxGeometry>
        </mxCell>
        <mxCell id="V0XUvgyLBSWxk2wAO0TV-115" value="RESET COUNTER" style="edgeStyle=orthogonalEdgeStyle;rounded=0;orthogonalLoop=1;jettySize=auto;html=1;exitX=1;exitY=0.5;exitDx=0;exitDy=0;entryX=0;entryY=0.5;entryDx=0;entryDy=0;strokeColor=#00CC00;strokeWidth=2;fontStyle=1;" parent="1" source="V0XUvgyLBSWxk2wAO0TV-116" target="V0XUvgyLBSWxk2wAO0TV-29" edge="1">
          <mxGeometry x="-0.7997" relative="1" as="geometry">
            <mxPoint as="offset" />
          </mxGeometry>
        </mxCell>
        <mxCell id="V0XUvgyLBSWxk2wAO0TV-116" value="IF &lt;br&gt;LIVENESS DETECTION SUCCESS" style="rounded=0;whiteSpace=wrap;html=1;strokeWidth=2;fontStyle=1;shape=rhombus;perimeter=rhombusPerimeter;" parent="1" vertex="1">
          <mxGeometry x="3540" y="963" width="110" height="100" as="geometry" />
        </mxCell>
        <mxCell id="n9XljHWC7_VoTbjAQmX2-2" style="edgeStyle=orthogonalEdgeStyle;rounded=0;orthogonalLoop=1;jettySize=auto;html=1;exitX=0.5;exitY=1;exitDx=0;exitDy=0;fontSize=13;strokeColor=#FF0000;strokeWidth=2;fontStyle=1;" parent="1" source="V0XUvgyLBSWxk2wAO0TV-122" target="V0XUvgyLBSWxk2wAO0TV-112" edge="1">
          <mxGeometry relative="1" as="geometry" />
        </mxCell>
        <mxCell id="V0XUvgyLBSWxk2wAO0TV-122" value="EXCEPTION AND ERROR HANDLING (COUNTER)" style="rounded=0;whiteSpace=wrap;html=1;fontStyle=1;strokeWidth=2;fontSize=11;shape=label;boundedLbl=1;backgroundOutline=1;size=9.769240159254764;" parent="1" vertex="1">
          <mxGeometry x="3300" y="1099.5" width="159" height="30" as="geometry" />
        </mxCell>
        <mxCell id="V0XUvgyLBSWxk2wAO0TV-123" value="CONFIRM APPOINTMENT" style="edgeStyle=orthogonalEdgeStyle;rounded=0;orthogonalLoop=1;jettySize=auto;html=1;exitX=0.5;exitY=1;exitDx=0;exitDy=0;entryX=1;entryY=0.5;entryDx=0;entryDy=0;entryPerimeter=0;strokeColor=#00CC00;strokeWidth=2;fontStyle=1;startArrow=classic;startFill=1;jumpStyle=arc;jumpSize=11;" parent="1" source="V0XUvgyLBSWxk2wAO0TV-42" target="V0XUvgyLBSWxk2wAO0TV-105" edge="1">
          <mxGeometry x="-0.3766" relative="1" as="geometry">
            <Array as="points">
              <mxPoint x="3760" y="1150" />
              <mxPoint x="3250" y="1150" />
              <mxPoint x="3250" y="1225" />
            </Array>
            <mxPoint as="offset" />
          </mxGeometry>
        </mxCell>
        <mxCell id="V0XUvgyLBSWxk2wAO0TV-124" value="NOTIFICATION GENERATOR" style="rounded=0;whiteSpace=wrap;html=1;fontStyle=1;strokeWidth=2;fontSize=11;fillColor=default;strokeColor=default;" parent="1" vertex="1">
          <mxGeometry x="3852.75" y="883" width="147.25" height="37" as="geometry" />
        </mxCell>
        <mxCell id="V0XUvgyLBSWxk2wAO0TV-125" value="NOTIFICATION GENERATOR" style="rounded=0;whiteSpace=wrap;html=1;fontStyle=1;strokeWidth=2;fontSize=11;fillColor=default;strokeColor=default;" parent="1" vertex="1">
          <mxGeometry x="3630" y="883" width="94.5" height="37" as="geometry" />
        </mxCell>
        <mxCell id="V0XUvgyLBSWxk2wAO0TV-126" style="edgeStyle=orthogonalEdgeStyle;rounded=0;orthogonalLoop=1;jettySize=auto;html=1;exitX=1;exitY=0.5;exitDx=0;exitDy=0;strokeColor=#00CC00;strokeWidth=2;fontStyle=1;" parent="1" source="V0XUvgyLBSWxk2wAO0TV-127" target="V0XUvgyLBSWxk2wAO0TV-94" edge="1">
          <mxGeometry relative="1" as="geometry" />
        </mxCell>
        <mxCell id="V0XUvgyLBSWxk2wAO0TV-127" value="RECEIVE APPLICATION FAILURE NOTIFICATION ON EMAIL AND PHONE" style="rounded=0;whiteSpace=wrap;html=1;strokeWidth=2;fontStyle=1" parent="1" vertex="1">
          <mxGeometry x="3892.5" y="334" width="155" height="60" as="geometry" />
        </mxCell>
        <mxCell id="V0XUvgyLBSWxk2wAO0TV-128" value="&lt;div style=&quot;text-align: left; font-size: 13px;&quot;&gt;&lt;br&gt;&lt;/div&gt;" style="text;html=1;align=center;verticalAlign=middle;resizable=0;points=[];autosize=1;strokeColor=none;fillColor=none;spacing=0;" parent="1" vertex="1">
          <mxGeometry x="2340" y="1558" width="20" height="30" as="geometry" />
        </mxCell>
        <mxCell id="V0XUvgyLBSWxk2wAO0TV-130" style="edgeStyle=orthogonalEdgeStyle;rounded=0;orthogonalLoop=1;jettySize=auto;html=1;exitX=0.25;exitY=1;exitDx=0;exitDy=0;entryX=1;entryY=0.5;entryDx=0;entryDy=0;strokeColor=#00CC00;strokeWidth=2;fontStyle=1;" parent="1" source="V0XUvgyLBSWxk2wAO0TV-131" target="V0XUvgyLBSWxk2wAO0TV-10" edge="1">
          <mxGeometry relative="1" as="geometry" />
        </mxCell>
        <mxCell id="V0XUvgyLBSWxk2wAO0TV-131" value="&lt;u&gt;FILL FORM WITH SELF &lt;br&gt;DETAILS&lt;/u&gt;:&lt;br style=&quot;border-color: var(--border-color);&quot;&gt;GIVEN NAME&lt;br style=&quot;border-color: var(--border-color);&quot;&gt;FAMILY NAME&lt;br style=&quot;border-color: var(--border-color);&quot;&gt;UID&lt;br style=&quot;border-color: var(--border-color);&quot;&gt;POR(SIGNED WITH APPLICANTS CLAIMED DETAILS)" style="rounded=0;whiteSpace=wrap;html=1;align=center;strokeWidth=2;fontStyle=1;shape=parallelogram;perimeter=parallelogramPerimeter;fixedSize=1;" parent="1" vertex="1">
          <mxGeometry x="2695" y="210.5" width="210" height="150" as="geometry" />
        </mxCell>
        <mxCell id="V0XUvgyLBSWxk2wAO0TV-133" value="" style="edgeStyle=orthogonalEdgeStyle;rounded=0;orthogonalLoop=1;jettySize=auto;html=1;exitX=0.5;exitY=1;exitDx=0;exitDy=0;entryX=0.5;entryY=0;entryDx=0;entryDy=0;strokeColor=#00CC00;strokeWidth=2;fontStyle=1;" parent="1" source="V0XUvgyLBSWxk2wAO0TV-134" target="V0XUvgyLBSWxk2wAO0TV-137" edge="1">
          <mxGeometry x="0.7438" relative="1" as="geometry">
            <mxPoint as="offset" />
            <Array as="points">
              <mxPoint x="2443" y="850" />
              <mxPoint x="2443" y="850" />
            </Array>
          </mxGeometry>
        </mxCell>
        <mxCell id="V0XUvgyLBSWxk2wAO0TV-134" value="IF &lt;br&gt;INTRODUCER&lt;br style=&quot;border-color: var(--border-color);&quot;&gt;UIN &lt;br&gt;PROVIDED" style="rounded=0;whiteSpace=wrap;html=1;fontStyle=1;strokeWidth=2;shape=rhombus;perimeter=rhombusPerimeter;" parent="1" vertex="1">
          <mxGeometry x="2380" y="610" width="125" height="100" as="geometry" />
        </mxCell>
        <mxCell id="V0XUvgyLBSWxk2wAO0TV-135" style="edgeStyle=orthogonalEdgeStyle;rounded=0;orthogonalLoop=1;jettySize=auto;html=1;exitX=1;exitY=0.5;exitDx=0;exitDy=0;entryX=0;entryY=0.5;entryDx=0;entryDy=0;strokeColor=#00CC00;strokeWidth=2;fontStyle=1;jumpStyle=arc;jumpSize=11;" parent="1" source="V0XUvgyLBSWxk2wAO0TV-137" target="V0XUvgyLBSWxk2wAO0TV-16" edge="1">
          <mxGeometry relative="1" as="geometry">
            <Array as="points">
              <mxPoint x="2560" y="978" />
              <mxPoint x="2560" y="639" />
            </Array>
          </mxGeometry>
        </mxCell>
        <mxCell id="V0XUvgyLBSWxk2wAO0TV-136" style="edgeStyle=orthogonalEdgeStyle;rounded=0;orthogonalLoop=1;jettySize=auto;html=1;exitX=0.5;exitY=1;exitDx=0;exitDy=0;fontSize=13;verticalAlign=bottom;strokeColor=#FF0000;strokeWidth=2;fontStyle=1;" parent="1" source="V0XUvgyLBSWxk2wAO0TV-137" target="V0XUvgyLBSWxk2wAO0TV-139" edge="1">
          <mxGeometry relative="1" as="geometry">
            <Array as="points">
              <mxPoint x="2440" y="1046" />
              <mxPoint x="2440" y="1090" />
              <mxPoint x="2610" y="1090" />
            </Array>
          </mxGeometry>
        </mxCell>
        <mxCell id="V0XUvgyLBSWxk2wAO0TV-137" value="IF &lt;br&gt;INTRODUCER UIN&lt;br style=&quot;border-color: var(--border-color);&quot;&gt;EXIST IN AUTHORISED INTRODUCER &lt;br&gt;DATABASE" style="rounded=0;whiteSpace=wrap;html=1;fontStyle=1;strokeWidth=2;shape=rhombus;perimeter=rhombusPerimeter;" parent="1" vertex="1">
          <mxGeometry x="2367.25" y="910" width="150.5" height="135.5" as="geometry" />
        </mxCell>
        <mxCell id="V0XUvgyLBSWxk2wAO0TV-138" value="AC" style="ellipse;whiteSpace=wrap;html=1;fillColor=#dae8fc;strokeColor=#6c8ebf;gradientColor=#7ea6e0;fontStyle=1" parent="1" vertex="1">
          <mxGeometry x="2378.25" y="922" width="30" height="26" as="geometry" />
        </mxCell>
        <mxCell id="n9XljHWC7_VoTbjAQmX2-1" style="edgeStyle=orthogonalEdgeStyle;rounded=0;orthogonalLoop=1;jettySize=auto;html=1;exitX=0.75;exitY=1;exitDx=0;exitDy=0;entryX=0.5;entryY=0;entryDx=0;entryDy=0;fontSize=13;strokeColor=#FF0000;strokeWidth=2;fontStyle=1;" parent="1" source="V0XUvgyLBSWxk2wAO0TV-139" target="V0XUvgyLBSWxk2wAO0TV-98" edge="1">
          <mxGeometry relative="1" as="geometry" />
        </mxCell>
        <mxCell id="V0XUvgyLBSWxk2wAO0TV-139" value="EXCEPTION AND ERROR HANDLING (COUNTER)" style="rounded=0;whiteSpace=wrap;html=1;fontStyle=1;strokeWidth=2;fontSize=11;shape=label;boundedLbl=1;backgroundOutline=1;size=9.769240159254764;" parent="1" vertex="1">
          <mxGeometry x="2575" y="1109.75" width="200" height="30" as="geometry" />
        </mxCell>
        <mxCell id="V0XUvgyLBSWxk2wAO0TV-140" value="NOTIFICATION GENERATOR" style="rounded=0;whiteSpace=wrap;html=1;fontStyle=1;strokeWidth=2;fontSize=11;fillColor=default;strokeColor=default;" parent="1" vertex="1">
          <mxGeometry x="2752.75" y="1157.25" width="94.5" height="37" as="geometry" />
        </mxCell>
        <mxCell id="V0XUvgyLBSWxk2wAO0TV-91" value="RESET COUNTER" style="edgeStyle=orthogonalEdgeStyle;rounded=0;orthogonalLoop=1;jettySize=auto;html=1;exitX=0.5;exitY=1;exitDx=0;exitDy=0;entryX=0.5;entryY=0;entryDx=0;entryDy=0;strokeColor=#00CC00;strokeWidth=2;fontStyle=1;" parent="1" source="V0XUvgyLBSWxk2wAO0TV-87" target="V0XUvgyLBSWxk2wAO0TV-13" edge="1">
          <mxGeometry x="0.6049" y="-45" relative="1" as="geometry">
            <mxPoint y="1" as="offset" />
            <Array as="points">
              <mxPoint x="2708" y="800" />
              <mxPoint x="2645" y="800" />
            </Array>
          </mxGeometry>
        </mxCell>
        <mxCell id="V0XUvgyLBSWxk2wAO0TV-146" value="" style="group" parent="1" vertex="1" connectable="0">
          <mxGeometry x="2180" y="510" width="1960" height="60" as="geometry" />
        </mxCell>
        <mxCell id="V0XUvgyLBSWxk2wAO0TV-147" value="" style="group" parent="V0XUvgyLBSWxk2wAO0TV-146" vertex="1" connectable="0">
          <mxGeometry y="20" width="1960" height="40" as="geometry" />
        </mxCell>
        <mxCell id="V0XUvgyLBSWxk2wAO0TV-148" value="&lt;b&gt;SINGLE/ DUAL FIREWALL&lt;/b&gt;" style="shape=label;whiteSpace=wrap;html=1;boundedLbl=1;backgroundOutline=1;darkOpacity=0.05;darkOpacity2=0.1;fillColor=#e51400;fontColor=#ffffff;strokeColor=#B20000;rounded=0;" parent="V0XUvgyLBSWxk2wAO0TV-147" vertex="1">
          <mxGeometry width="1960" height="20" as="geometry" />
        </mxCell>
        <mxCell id="V0XUvgyLBSWxk2wAO0TV-149" value="&lt;b&gt;IDS, IPS, HONEYPOT&lt;/b&gt;" style="shape=label;whiteSpace=wrap;html=1;boundedLbl=1;backgroundOutline=1;darkOpacity=0.05;darkOpacity2=0.1;fillColor=#f0a30a;strokeColor=#BD7000;rounded=0;fontColor=#000000;" parent="V0XUvgyLBSWxk2wAO0TV-147" vertex="1">
          <mxGeometry y="20" width="1960" height="20" as="geometry" />
        </mxCell>
        <mxCell id="V0XUvgyLBSWxk2wAO0TV-150" value="API/ HTTPS (SSL/TLS)" style="shape=label;whiteSpace=wrap;html=1;boundedLbl=1;backgroundOutline=1;darkOpacity=0.05;darkOpacity2=0.1;fillColor=#f8cecc;strokeColor=#b85450;rounded=0;fontStyle=1" parent="V0XUvgyLBSWxk2wAO0TV-146" vertex="1">
          <mxGeometry width="1960" height="20" as="geometry" />
        </mxCell>
        <mxCell id="V0XUvgyLBSWxk2wAO0TV-105" value="STORES IN RID ACCOUNT IN DATABASE&lt;br style=&quot;border-color: var(--border-color);&quot;&gt;&lt;span style=&quot;&quot;&gt;----------------------&lt;/span&gt;&lt;br style=&quot;border-color: var(--border-color);&quot;&gt;&lt;span style=&quot;&quot;&gt;WITH ENCRYPTION &amp;amp; HASHING&lt;/span&gt;" style="shape=label;whiteSpace=wrap;html=1;boundedLbl=1;backgroundOutline=1;size=15;fontStyle=1;rounded=0;strokeWidth=2;" parent="1" vertex="1">
          <mxGeometry x="2975" y="1180" width="180" height="89.75" as="geometry" />
        </mxCell>
        <mxCell id="NzUfy9cO0BzUcHue6pzK-3" style="edgeStyle=orthogonalEdgeStyle;rounded=0;orthogonalLoop=1;jettySize=auto;html=1;exitX=0.5;exitY=1;exitDx=0;exitDy=0;entryX=0.5;entryY=0;entryDx=0;entryDy=0;strokeColor=#00CC00;strokeWidth=2;fontStyle=1;" parent="1" source="V0XUvgyLBSWxk2wAO0TV-118" target="V0XUvgyLBSWxk2wAO0TV-116" edge="1">
          <mxGeometry relative="1" as="geometry">
            <Array as="points">
              <mxPoint x="3595" y="782" />
            </Array>
          </mxGeometry>
        </mxCell>
        <mxCell id="V0XUvgyLBSWxk2wAO0TV-117" value="" style="group" parent="1" vertex="1" connectable="0">
          <mxGeometry x="3515" y="713" width="150" height="78" as="geometry" />
        </mxCell>
        <mxCell id="V0XUvgyLBSWxk2wAO0TV-118" value="MASK &amp;amp; ENCRYPT IMAGE FILE" style="rounded=0;whiteSpace=wrap;html=1;fontStyle=1;strokeWidth=2;" parent="V0XUvgyLBSWxk2wAO0TV-117" vertex="1">
          <mxGeometry x="30" y="9" width="120" height="60" as="geometry" />
        </mxCell>
        <mxCell id="V0XUvgyLBSWxk2wAO0TV-119" value="CA" style="ellipse;whiteSpace=wrap;html=1;fillColor=#dae8fc;strokeColor=#6c8ebf;gradientColor=#7ea6e0;fontStyle=1" parent="V0XUvgyLBSWxk2wAO0TV-117" vertex="1">
          <mxGeometry y="52" width="30" height="26" as="geometry" />
        </mxCell>
        <mxCell id="V0XUvgyLBSWxk2wAO0TV-120" value="HSM" style="ellipse;whiteSpace=wrap;html=1;fillColor=#dae8fc;strokeColor=#6c8ebf;gradientColor=#7ea6e0;fontStyle=1" parent="V0XUvgyLBSWxk2wAO0TV-117" vertex="1">
          <mxGeometry y="26" width="30" height="26" as="geometry" />
        </mxCell>
        <mxCell id="V0XUvgyLBSWxk2wAO0TV-121" value="KM" style="ellipse;whiteSpace=wrap;html=1;fillColor=#dae8fc;strokeColor=#6c8ebf;gradientColor=#7ea6e0;fontStyle=1" parent="V0XUvgyLBSWxk2wAO0TV-117" vertex="1">
          <mxGeometry width="30" height="26" as="geometry" />
        </mxCell>
        <mxCell id="V0XUvgyLBSWxk2wAO0TV-141" value="" style="group" parent="1" vertex="1" connectable="0">
          <mxGeometry x="2180" y="828" width="1960" height="60" as="geometry" />
        </mxCell>
        <mxCell id="V0XUvgyLBSWxk2wAO0TV-142" value="" style="group" parent="V0XUvgyLBSWxk2wAO0TV-141" vertex="1" connectable="0">
          <mxGeometry y="2" width="1960" height="40" as="geometry" />
        </mxCell>
        <mxCell id="V0XUvgyLBSWxk2wAO0TV-143" value="&lt;b&gt;SINGLE/ DUAL FIREWALL&lt;/b&gt;" style="shape=label;whiteSpace=wrap;html=1;boundedLbl=1;backgroundOutline=1;darkOpacity=0.05;darkOpacity2=0.1;fillColor=#e51400;fontColor=#ffffff;strokeColor=#B20000;rounded=0;" parent="V0XUvgyLBSWxk2wAO0TV-142" vertex="1">
          <mxGeometry width="1960" height="20" as="geometry" />
        </mxCell>
        <mxCell id="V0XUvgyLBSWxk2wAO0TV-144" value="&lt;b&gt;IDS, IPS, HONEYPOT&lt;/b&gt;" style="shape=label;whiteSpace=wrap;html=1;boundedLbl=1;backgroundOutline=1;darkOpacity=0.05;darkOpacity2=0.1;fillColor=#f0a30a;strokeColor=#BD7000;rounded=0;fontColor=#000000;" parent="V0XUvgyLBSWxk2wAO0TV-142" vertex="1">
          <mxGeometry y="20" width="1960" height="20" as="geometry" />
        </mxCell>
        <mxCell id="V0XUvgyLBSWxk2wAO0TV-145" value="API/ HTTPS (SSL/TLS)" style="shape=label;whiteSpace=wrap;html=1;boundedLbl=1;backgroundOutline=1;darkOpacity=0.05;darkOpacity2=0.1;fillColor=#f8cecc;strokeColor=#b85450;rounded=0;fontStyle=1" parent="V0XUvgyLBSWxk2wAO0TV-141" vertex="1">
          <mxGeometry y="-18" width="1960" height="20" as="geometry" />
        </mxCell>
        <mxCell id="gno2La8aBQJTb1E08PKW-1" value="&lt;div style=&quot;font-size: 18px;&quot;&gt;&lt;font style=&quot;font-size: 18px;&quot;&gt;&lt;b style=&quot;font-size: 18px;&quot;&gt;Purpose:&lt;/b&gt;&lt;/font&gt;&lt;/div&gt;&lt;div style=&quot;font-size: 18px;&quot;&gt;&lt;div&gt;This SOP outlines a process where an introducer fills out forms on behalf of an applicant and uploads required documents.&lt;/div&gt;&lt;div&gt;There is mention of authentication via introducer UIN and checks against an authorized introducer database.&lt;/div&gt;&lt;div&gt;Similar to the previous SOP, it concludes with appointment confirmation or error message if the process fails.&lt;/div&gt;&lt;/div&gt;" style="whiteSpace=wrap;html=1;align=left;rounded=0;strokeWidth=2;verticalAlign=middle;fontFamily=Helvetica;fontSize=18;fontStyle=0;" vertex="1" parent="1">
          <mxGeometry x="2150" y="10" width="2020" height="90" as="geometry" />
        </mxCell>
      </root>
    </mxGraphModel>
  </diagram>
</mxfile>
